<?xml version="1.0" encoding="UTF-8" standalone="no"?>
<!-- Created with Inkscape (http://www.inkscape.org/) -->

<svg
   version="1.1"
   id="svg2"
   width="409.99799"
   height="574.72266"
   viewBox="0 0 409.99799 574.72266"
   sodipodi:docname="Brand-Logo.svg"
   inkscape:version="1.2.2 (732a01da63, 2022-12-09)"
   xmlns:inkscape="http://www.inkscape.org/namespaces/inkscape"
   xmlns:sodipodi="http://sodipodi.sourceforge.net/DTD/sodipodi-0.dtd"
   xmlns="http://www.w3.org/2000/svg"
   xmlns:svg="http://www.w3.org/2000/svg">
  <defs
     id="defs6">
    <clipPath
       clipPathUnits="userSpaceOnUse"
       id="clipPath90">
      <path
         d="M 0,792 H 792 V 0 H 0 Z"
         id="path88" />
    </clipPath>
  </defs>
  <sodipodi:namedview
     id="namedview4"
     pagecolor="#ffffff"
     bordercolor="#000000"
     borderopacity="0.25"
     inkscape:showpageshadow="2"
     inkscape:pageopacity="0.0"
     inkscape:pagecheckerboard="0"
     inkscape:deskcolor="#d1d1d1"
     showgrid="false"
     inkscape:zoom="0.5604625"
     inkscape:cx="105.2702"
     inkscape:cy="266.74398"
     inkscape:window-width="1387"
     inkscape:window-height="1040"
     inkscape:window-x="2233"
     inkscape:window-y="12"
     inkscape:window-maximized="0"
     inkscape:current-layer="g10">
    <inkscape:page
       x="0"
       y="0"
       id="page8"
       width="409.99799"
       height="574.72266" />
  </sodipodi:namedview>
  <g
     id="g10"
     inkscape:groupmode="layer"
     inkscape:label="Page 1"
     transform="matrix(1.3333333,0,0,-1.3333333,-322.47899,946.8455)">
    <text
       xml:space="preserve"
       transform="scale(1.0194792,-0.98089299)"
       style="font-variant:normal;font-weight:normal;font-stretch:normal;font-size:48.92px;font-family:'Logo Text';-inkscape-font-specification:Logo-Text;writing-mode:lr-tb;fill:#231f20;fill-opacity:1;fill-rule:nonzero;stroke:none;stroke-width:1.01948"
       id="text14"
       x="266.8584"
       y="-394.88345"><tspan
         x="266.8584 487.04739"
         y="-394.88345"
         sodipodi:role="line"
         id="tspan12"
         style="stroke-width:1.01948">SB</tspan></text>
    <g
       id="g24"
       transform="translate(309.9985,538.6382)">
      <path
         d="M 0,0 V 42.51 H -38.056"
         style="fill:none;stroke:#21baed;stroke-width:1.5;stroke-linecap:butt;stroke-linejoin:miter;stroke-miterlimit:10;stroke-dasharray:none;stroke-opacity:1"
         id="path26" />
    </g>
    <g
       id="g28"
       transform="translate(388.3848,587.3091)">
      <path
         d="M 0,0 H -15.737 -41.063 V -67.446"
         style="fill:none;stroke:#21baed;stroke-width:1.5;stroke-linecap:butt;stroke-linejoin:miter;stroke-miterlimit:10;stroke-dasharray:none;stroke-opacity:1"
         id="path30" />
    </g>
    <g
       id="g32"
       transform="translate(371.5049,619.8027)">
      <path
         d="M 0,0 V -32.494 Z"
         style="fill:none;stroke:#21baed;stroke-width:1.5;stroke-linecap:butt;stroke-linejoin:miter;stroke-miterlimit:10;stroke-dasharray:none;stroke-opacity:1"
         id="path34" />
    </g>
    <g
       id="g36"
       transform="translate(381.3247,619.8027)">
      <path
         d="M 0,0 H -11.153"
         style="fill:none;stroke:#21baed;stroke-width:1.5;stroke-linecap:butt;stroke-linejoin:miter;stroke-miterlimit:10;stroke-dasharray:none;stroke-opacity:1"
         id="path38" />
    </g>
    <g
       id="g40"
       transform="translate(395.1636,546.0723)">
      <path
         d="m 0,0 h 89.45 v 36.027 h 33.286"
         style="fill:none;stroke:#21baed;stroke-width:1.5;stroke-linecap:butt;stroke-linejoin:miter;stroke-miterlimit:10;stroke-dasharray:none;stroke-opacity:1"
         id="path42" />
    </g>
    <g
       id="g44"
       transform="translate(432.1768,507.8203)">
      <path
         d="M 0,0 V 38.252"
         style="fill:none;stroke:#21baed;stroke-width:1.5;stroke-linecap:butt;stroke-linejoin:miter;stroke-miterlimit:10;stroke-dasharray:none;stroke-opacity:1"
         id="path46" />
    </g>
    <g
       id="g48"
       transform="translate(448.751,546.0723)">
      <path
         d="M 0,0 V 44.723 H -45.765"
         style="fill:none;stroke:#21baed;stroke-width:1.5;stroke-linecap:butt;stroke-linejoin:miter;stroke-miterlimit:10;stroke-dasharray:none;stroke-opacity:1"
         id="path50" />
    </g>
    <g
       id="g52"
       transform="translate(264.9658,515.7734)">
      <path
         d="M 0,0 H 27.913"
         style="fill:none;stroke:#21baed;stroke-width:1.5;stroke-linecap:butt;stroke-linejoin:miter;stroke-miterlimit:10;stroke-dasharray:none;stroke-opacity:1"
         id="path54" />
    </g>
    <g
       id="g56"
       transform="translate(442.3652,480.1133)">
      <path
         d="M 0,0 V -17.812 H 13.458 V -28.5 -73.227 h 11.726"
         style="fill:none;stroke:#21baed;stroke-width:1.5;stroke-linecap:butt;stroke-linejoin:miter;stroke-miterlimit:10;stroke-dasharray:none;stroke-opacity:1"
         id="path58" />
    </g>
    <g
       id="g60"
       transform="translate(498.7891,517.9238)">
      <path
         d="M 0,0 H 15.748 V 13.91 H 27.271"
         style="fill:none;stroke:#21baed;stroke-width:1.5;stroke-linecap:butt;stroke-linejoin:miter;stroke-miterlimit:10;stroke-dasharray:none;stroke-opacity:1"
         id="path62" />
    </g>
    <g
       id="g64"
       transform="translate(455.8232,449.8989)">
      <path
         d="M 0,0 H 36.02 V 13.194 H 53.643"
         style="fill:none;stroke:#21baed;stroke-width:1.5;stroke-linecap:butt;stroke-linejoin:miter;stroke-miterlimit:10;stroke-dasharray:none;stroke-opacity:1"
         id="path66" />
    </g>
    <g
       id="g68"
       transform="translate(302.5088,501.0669)">
      <path
         d="M 0,0 V -47.078 H 23.881 V -99.101"
         style="fill:none;stroke:#21baed;stroke-width:1.5;stroke-linecap:butt;stroke-linejoin:miter;stroke-miterlimit:10;stroke-dasharray:none;stroke-opacity:1"
         id="path70" />
    </g>
    <g
       id="g72"
       transform="translate(353.3057,428.5376)">
      <path
         d="M 0,0 V -29.766 Z"
         style="fill:none;stroke:#21baed;stroke-width:1.5;stroke-linecap:butt;stroke-linejoin:miter;stroke-miterlimit:10;stroke-dasharray:none;stroke-opacity:1"
         id="path74" />
    </g>
    <g
       id="g76"
       transform="translate(326.3896,427.271)">
      <path
         d="M 0,0 H 26.916"
         style="fill:none;stroke:#21baed;stroke-width:1.5;stroke-linecap:butt;stroke-linejoin:miter;stroke-miterlimit:10;stroke-dasharray:none;stroke-opacity:1"
         id="path78" />
    </g>
    <g
       id="g80"
       transform="translate(353.3057,398.772)">
      <path
         d="M 0,0 V -52.512"
         style="fill:none;stroke:#21baed;stroke-width:1.5;stroke-linecap:butt;stroke-linejoin:miter;stroke-miterlimit:10;stroke-dasharray:none;stroke-opacity:1"
         id="path82" />
    </g>
    <g
       id="g84">
      <g
         id="g86"
         clip-path="url(#clipPath90)">
        <g
           id="g92"
           transform="translate(395.1636,637.6499)">
          <path
             d="m 0,0 18.703,1.385 c 0,0 39.582,62.54 68.477,69.863 0,0 19.988,-3.958 24.937,-35.624 l 2.77,-74.415 c 0,0 21.968,-32.853 14.447,-88.664 0,0 -8.312,-50.269 -34.633,-75.799 l -45.916,-56.603 -9.896,-43.54 -27.509,-13.656 H 0"
             style="fill:none;stroke:#000000;stroke-width:2;stroke-linecap:butt;stroke-linejoin:miter;stroke-miterlimit:10;stroke-dasharray:none;stroke-opacity:1"
             id="path94" />
        </g>
        <g
           id="g96"
           transform="translate(430.623,648.4687)">
          <path
             d="m 0,0 50.929,44.86 18.208,-59.11 -39.145,-21.638 6.423,42.485 9.5,-21.77"
             style="fill:none;stroke:#ed2024;stroke-width:2;stroke-linecap:butt;stroke-linejoin:miter;stroke-miterlimit:10;stroke-dasharray:none;stroke-opacity:1"
             id="path98" />
        </g>
        <g
           id="g100"
           transform="translate(412.9424,486.1821)">
          <path
             d="m 0,0 46.443,52.249 h 38.79 L 97.372,62.012 95.525,46.443 60.957,-6.069 H 3.958 l -5.805,-5.278 z"
             style="fill:#ed1c24;fill-opacity:1;fill-rule:nonzero;stroke:none"
             id="path102" />
        </g>
        <g
           id="g104"
           transform="translate(412.9424,486.1821)">
          <path
             d="m 0,0 46.443,52.249 h 38.79 L 97.372,62.012 95.525,46.443 60.957,-6.069 H 3.958 l -5.805,-5.278 z"
             style="fill:none;stroke:#000000;stroke-width:2;stroke-linecap:butt;stroke-linejoin:miter;stroke-miterlimit:10;stroke-dasharray:none;stroke-opacity:1"
             id="path106" />
        </g>
        <g
           id="g108"
           transform="translate(421.123,484.8628)">
          <path
             d="M 0,0 39.492,44.332 78.637,45.916 50.665,2.111 Z"
             style="fill:#ffffff;fill-opacity:1;fill-rule:nonzero;stroke:none"
             id="path110" />
        </g>
        <g
           id="g112"
           transform="translate(421.123,484.8628)">
          <path
             d="M 0,0 39.492,44.332 78.637,45.916 50.665,2.111 Z"
             style="fill:none;stroke:#000000;stroke-width:2;stroke-linecap:butt;stroke-linejoin:miter;stroke-miterlimit:10;stroke-dasharray:none;stroke-opacity:1"
             id="path114" />
        </g>
        <g
           id="g116"
           transform="translate(395.1636,320.5957)">
          <path
             d="m 0,0 -11.442,0.028 -27.626,13.724 -9.844,43.564 -46.027,56.715 c -26.403,25.595 -34.638,75.885 -34.638,75.885 -7.426,55.829 14.743,88.628 14.743,88.628 l 2.967,74.407 c 5.052,31.653 25.159,35.563 25.159,35.563 29.036,-7.394 68.681,-70.031 68.681,-70.031 l 18.801,-1.431"
             style="fill:none;stroke:#000000;stroke-width:2;stroke-linecap:butt;stroke-linejoin:miter;stroke-miterlimit:10;stroke-dasharray:none;stroke-opacity:1"
             id="path118" />
        </g>
        <g
           id="g120"
           transform="translate(359.7905,648.5557)">
          <path
             d="m 0,0 -50.819,44.984 -18.352,-59.065 39.091,-21.733 -6.319,42.5 -7.557,-22.605"
             style="fill:none;stroke:#ed2024;stroke-width:2;stroke-linecap:butt;stroke-linejoin:miter;stroke-miterlimit:10;stroke-dasharray:none;stroke-opacity:1"
             id="path122" />
        </g>
        <g
           id="g124"
           transform="translate(377.0742,486.2261)">
          <path
             d="m 0,0 -46.315,52.362 -38.79,0.095 -12.115,9.793 1.809,-15.574 34.44,-52.596 56.998,-0.14 5.792,-5.292 z"
             style="fill:#ed1c24;fill-opacity:1;fill-rule:nonzero;stroke:none"
             id="path126" />
        </g>
        <g
           id="g128"
           transform="translate(377.0742,486.2261)">
          <path
             d="m 0,0 -46.315,52.362 -38.79,0.095 -12.115,9.793 1.809,-15.574 34.44,-52.596 56.998,-0.14 5.792,-5.292 z"
             style="fill:none;stroke:#000000;stroke-width:2;stroke-linecap:butt;stroke-linejoin:miter;stroke-miterlimit:10;stroke-dasharray:none;stroke-opacity:1"
             id="path130" />
        </g>
        <g
           id="g132"
           transform="translate(368.8906,484.9268)">
          <path
             d="M 0,0 -39.384,44.428 -78.524,46.107 -50.66,2.235 Z"
             style="fill:#ffffff;fill-opacity:1;fill-rule:nonzero;stroke:none"
             id="path134" />
        </g>
        <g
           id="g136"
           transform="translate(368.8906,484.9268)">
          <path
             d="M 0,0 -39.384,44.428 -78.524,46.107 -50.66,2.235 Z"
             style="fill:none;stroke:#000000;stroke-width:2;stroke-linecap:butt;stroke-linejoin:miter;stroke-miterlimit:10;stroke-dasharray:none;stroke-opacity:1"
             id="path138" />
        </g>
        <g
           id="g140"
           transform="translate(357.8574,682.7734)">
          <path
             d="M 0,0 37.907,22.298"
             style="fill:none;stroke:#21baed;stroke-width:4;stroke-linecap:butt;stroke-linejoin:miter;stroke-miterlimit:10;stroke-dasharray:none;stroke-opacity:1"
             id="path142" />
        </g>
        <g
           id="g144"
           transform="translate(272.9541,633.2959)">
          <path
             d="m 0,0 -29.093,-16.889 0.396,-246.728 150.906,-88.862"
             style="fill:none;stroke:#21baed;stroke-width:4;stroke-linecap:butt;stroke-linejoin:miter;stroke-miterlimit:10;stroke-dasharray:none;stroke-opacity:1"
             id="path146" />
        </g>
        <g
           id="g148"
           transform="translate(433.2158,681.8662)">
          <path
             d="M 0,0 -38.818,23.205"
             style="fill:none;stroke:#21baed;stroke-width:4;stroke-linecap:butt;stroke-linejoin:miter;stroke-miterlimit:10;stroke-dasharray:none;stroke-opacity:1"
             id="path150" />
        </g>
        <g
           id="g152"
           transform="translate(518.375,632.4277)">
          <path
             d="M 0,0 28.973,-17.093 26.832,-263.813 -124.7,-351.605"
             style="fill:none;stroke:#21baed;stroke-width:4;stroke-linecap:butt;stroke-linejoin:miter;stroke-miterlimit:10;stroke-dasharray:none;stroke-opacity:1"
             id="path154" />
        </g>
        <g
           id="g156"
           transform="translate(378.8936,474.8745)">
          <path
             d="M 0,0 16.27,-23.358 -6.853,-77.62 16.27,-126.965 -5.269,-132.507 -5.533,-143.59"
             style="fill:none;stroke:#000000;stroke-width:2;stroke-linecap:butt;stroke-linejoin:miter;stroke-miterlimit:10;stroke-dasharray:none;stroke-opacity:1"
             id="path158" />
        </g>
        <g
           id="g160"
           transform="translate(373.3604,331.2842)">
          <path
             d="M 0,0 21.803,-10.555"
             style="fill:none;stroke:#000000;stroke-width:2;stroke-linecap:butt;stroke-linejoin:miter;stroke-miterlimit:10;stroke-dasharray:none;stroke-opacity:1"
             id="path162" />
        </g>
        <g
           id="g164"
           transform="translate(411.1846,475.1025)">
          <path
             d="m 0,0 -15.929,-23.592 23.908,-53.921 -22.404,-49.675 21.617,-5.229 0.424,-11.078"
             style="fill:none;stroke:#000000;stroke-width:2;stroke-linecap:butt;stroke-linejoin:miter;stroke-miterlimit:10;stroke-dasharray:none;stroke-opacity:1"
             id="path166" />
        </g>
        <g
           id="g168"
           transform="translate(418.6436,331.9756)">
          <path
             d="M 0,0 -22.644,-11.371"
             style="fill:none;stroke:#000000;stroke-width:2;stroke-linecap:butt;stroke-linejoin:miter;stroke-miterlimit:10;stroke-dasharray:none;stroke-opacity:1"
             id="path170" />
        </g>
        <g
           id="g172"
           transform="translate(395.2554,453.0654)">
          <path
             d="m 0,0 -0.092,103.045 -18.027,82.969"
             style="fill:none;stroke:#231f20;stroke-width:2;stroke-linecap:butt;stroke-linejoin:miter;stroke-miterlimit:10;stroke-dasharray:none;stroke-opacity:1"
             id="path174" />
        </g>
        <g
           id="g176"
           transform="translate(434.6465,316.2432)">
          <path
             d="M 0,0 96.581,56.272"
             style="fill:#231f20;fill-opacity:1;fill-rule:nonzero;stroke:#000000;stroke-width:1;stroke-linecap:butt;stroke-linejoin:miter;stroke-miterlimit:10;stroke-dasharray:none;stroke-opacity:1"
             id="path178" />
        </g>
        <g
           id="g180"
           transform="translate(536.4385,403.0796)">
          <path
             d="M 0,0 V 193.669"
             style="fill:#231f20;fill-opacity:1;fill-rule:nonzero;stroke:#000000;stroke-width:1;stroke-linecap:butt;stroke-linejoin:miter;stroke-miterlimit:10;stroke-dasharray:none;stroke-opacity:1"
             id="path182" />
        </g>
        <g
           id="g184"
           transform="translate(397.5391,696.1323)">
          <path
             d="M 0,0 30.28,-17.911"
             style="fill:#231f20;fill-opacity:1;fill-rule:nonzero;stroke:#000000;stroke-width:1;stroke-linecap:butt;stroke-linejoin:miter;stroke-miterlimit:10;stroke-dasharray:none;stroke-opacity:1"
             id="path186" />
        </g>
        <g
           id="g188"
           transform="translate(355.6807,316.2432)">
          <path
             d="M 0,0 -96.581,56.272"
             style="fill:#231f20;fill-opacity:1;fill-rule:nonzero;stroke:#000000;stroke-width:1;stroke-linecap:butt;stroke-linejoin:miter;stroke-miterlimit:10;stroke-dasharray:none;stroke-opacity:1"
             id="path190" />
        </g>
        <g
           id="g192"
           transform="translate(253.8887,403.0796)">
          <path
             d="M 0,0 V 193.669"
             style="fill:#231f20;fill-opacity:1;fill-rule:nonzero;stroke:#000000;stroke-width:1;stroke-linecap:butt;stroke-linejoin:miter;stroke-miterlimit:10;stroke-dasharray:none;stroke-opacity:1"
             id="path194" />
        </g>
        <g
           id="g196"
           transform="translate(392.7886,696.1323)">
          <path
             d="M 0,0 -30.28,-17.911"
             style="fill:#231f20;fill-opacity:1;fill-rule:nonzero;stroke:#000000;stroke-width:1;stroke-linecap:butt;stroke-linejoin:miter;stroke-miterlimit:10;stroke-dasharray:none;stroke-opacity:1"
             id="path198" />
        </g>
        <g
           id="g200"
           transform="translate(413.8662,639.0352)">
          <path
             d="M 0,0 -18.703,-82.924"
             style="fill:none;stroke:#231f20;stroke-width:2;stroke-linecap:butt;stroke-linejoin:miter;stroke-miterlimit:10;stroke-dasharray:none;stroke-opacity:1"
             id="path202" />
        </g>
        <g
           id="g204"
           transform="translate(361.4385,503.9033)">
          <path
             d="M 0,0 33.725,31.173 67.256,0"
             style="fill:none;stroke:#231f20;stroke-width:1.5;stroke-linecap:butt;stroke-linejoin:miter;stroke-miterlimit:10;stroke-dasharray:none;stroke-opacity:1"
             id="path206" />
        </g>
      </g>
    </g>
  </g>
</svg>
